ModelForces
version=1
nRows=4
nColumns=206
inDegrees=no

This file contains the forces exerted on a model during a simulation.

A force is a generalized force, meaning that it can be either a force (N) or a torque (Nm).

Units are S.I. units (second, meters, Newtons, ...)
Angles are in degrees.

endheader
time	glut_med1_r	glut_med2_r	glut_med3_r	glut_min1_r	glut_min2_r	glut_min3_r	semimem_r	semiten_r	bifemlh_r	bifemsh_r	sar_r	add_long_r	add_brev_r	add_mag1_r	add_mag2_r	add_mag3_r	tfl_r	pect_r	grac_r	glut_max1_r	glut_max2_r	glut_max3_r	iliacus_r	psoas_r	quad_fem_r	gem_r	peri_r	rect_fem_r	vas_med_r	vas_int_r	vas_lat_r	med_gas_r	lat_gas_r	soleus_r	tib_post_r	flex_dig_r	flex_hal_r	tib_ant_r	per_brev_r	per_long_r	per_tert_r	ext_dig_r	ext_hal_r	glut_med1_l	glut_med2_l	glut_med3_l	glut_min1_l	glut_min2_l	glut_min3_l	semimem_l	semiten_l	bifemlh_l	bifemsh_l	sar_l	add_long_l	add_brev_l	add_mag1_l	add_mag2_l	add_mag3_l	tfl_l	pect_l	grac_l	glut_max1_l	glut_max2_l	glut_max3_l	iliacus_l	psoas_l	quad_fem_l	gem_l	peri_l	rect_fem_l	vas_med_l	vas_int_l	vas_lat_l	med_gas_l	lat_gas_l	soleus_l	tib_post_l	flex_dig_l	flex_hal_l	tib_ant_l	per_brev_l	per_long_l	per_tert_l	ext_dig_l	ext_hal_l	ercspn_r	ercspn_l	intobl_r	intobl_l	extobl_r	extobl_l	femur_lat_meniscii_l.femur_lat_l.force.X	femur_lat_meniscii_l.femur_lat_l.force.Y	femur_lat_meniscii_l.femur_lat_l.force.Z	femur_lat_meniscii_l.femur_lat_l.torque.X	femur_lat_meniscii_l.femur_lat_l.torque.Y	femur_lat_meniscii_l.femur_lat_l.torque.Z	femur_lat_meniscii_l.meniscus_lat_l.force.X	femur_lat_meniscii_l.meniscus_lat_l.force.Y	femur_lat_meniscii_l.meniscus_lat_l.force.Z	femur_lat_meniscii_l.meniscus_lat_l.torque.X	femur_lat_meniscii_l.meniscus_lat_l.torque.Y	femur_lat_meniscii_l.meniscus_lat_l.torque.Z	femur_med_meniscii_l.femur_med_l.force.X	femur_med_meniscii_l.femur_med_l.force.Y	femur_med_meniscii_l.femur_med_l.force.Z	femur_med_meniscii_l.femur_med_l.torque.X	femur_med_meniscii_l.femur_med_l.torque.Y	femur_med_meniscii_l.femur_med_l.torque.Z	femur_med_meniscii_l.meniscus_med_l.force.X	femur_med_meniscii_l.meniscus_med_l.force.Y	femur_med_meniscii_l.meniscus_med_l.force.Z	femur_med_meniscii_l.meniscus_med_l.torque.X	femur_med_meniscii_l.meniscus_med_l.torque.Y	femur_med_meniscii_l.meniscus_med_l.torque.Z	femur_lat_meniscii_r.femur_lat_r.force.X	femur_lat_meniscii_r.femur_lat_r.force.Y	femur_lat_meniscii_r.femur_lat_r.force.Z	femur_lat_meniscii_r.femur_lat_r.torque.X	femur_lat_meniscii_r.femur_lat_r.torque.Y	femur_lat_meniscii_r.femur_lat_r.torque.Z	femur_lat_meniscii_r.meniscus_lat_r.force.X	femur_lat_meniscii_r.meniscus_lat_r.force.Y	femur_lat_meniscii_r.meniscus_lat_r.force.Z	femur_lat_meniscii_r.meniscus_lat_r.torque.X	femur_lat_meniscii_r.meniscus_lat_r.torque.Y	femur_lat_meniscii_r.meniscus_lat_r.torque.Z	femur_med_meniscii_r.femur_med_r.force.X	femur_med_meniscii_r.femur_med_r.force.Y	femur_med_meniscii_r.femur_med_r.force.Z	femur_med_meniscii_r.femur_med_r.torque.X	femur_med_meniscii_r.femur_med_r.torque.Y	femur_med_meniscii_r.femur_med_r.torque.Z	femur_med_meniscii_r.meniscus_med_r.force.X	femur_med_meniscii_r.meniscus_med_r.force.Y	femur_med_meniscii_r.meniscus_med_r.force.Z	femur_med_meniscii_r.meniscus_med_r.torque.X	femur_med_meniscii_r.meniscus_med_r.torque.Y	femur_med_meniscii_r.meniscus_med_r.torque.Z	femur_med_tibia_l.tibia_upper_l.force.X	femur_med_tibia_l.tibia_upper_l.force.Y	femur_med_tibia_l.tibia_upper_l.force.Z	femur_med_tibia_l.tibia_upper_l.torque.X	femur_med_tibia_l.tibia_upper_l.torque.Y	femur_med_tibia_l.tibia_upper_l.torque.Z	femur_med_tibia_l.femur_med_l.force.X	femur_med_tibia_l.femur_med_l.force.Y	femur_med_tibia_l.femur_med_l.force.Z	femur_med_tibia_l.femur_med_l.torque.X	femur_med_tibia_l.femur_med_l.torque.Y	femur_med_tibia_l.femur_med_l.torque.Z	femur_lat_tibia_l.tibia_upper_l.force.X	femur_lat_tibia_l.tibia_upper_l.force.Y	femur_lat_tibia_l.tibia_upper_l.force.Z	femur_lat_tibia_l.tibia_upper_l.torque.X	femur_lat_tibia_l.tibia_upper_l.torque.Y	femur_lat_tibia_l.tibia_upper_l.torque.Z	femur_lat_tibia_l.femur_lat_l.force.X	femur_lat_tibia_l.femur_lat_l.force.Y	femur_lat_tibia_l.femur_lat_l.force.Z	femur_lat_tibia_l.femur_lat_l.torque.X	femur_lat_tibia_l.femur_lat_l.torque.Y	femur_lat_tibia_l.femur_lat_l.torque.Z	femur_med_tibia_r.tibia_upper_r.force.X	femur_med_tibia_r.tibia_upper_r.force.Y	femur_med_tibia_r.tibia_upper_r.force.Z	femur_med_tibia_r.tibia_upper_r.torque.X	femur_med_tibia_r.tibia_upper_r.torque.Y	femur_med_tibia_r.tibia_upper_r.torque.Z	femur_med_tibia_r.femur_med_r.force.X	femur_med_tibia_r.femur_med_r.force.Y	femur_med_tibia_r.femur_med_r.force.Z	femur_med_tibia_r.femur_med_r.torque.X	femur_med_tibia_r.femur_med_r.torque.Y	femur_med_tibia_r.femur_med_r.torque.Z	femur_lat_tibia_r.tibia_upper_r.force.X	femur_lat_tibia_r.tibia_upper_r.force.Y	femur_lat_tibia_r.tibia_upper_r.force.Z	femur_lat_tibia_r.tibia_upper_r.torque.X	femur_lat_tibia_r.tibia_upper_r.torque.Y	femur_lat_tibia_r.tibia_upper_r.torque.Z	femur_lat_tibia_r.femur_lat_r.force.X	femur_lat_tibia_r.femur_lat_r.force.Y	femur_lat_tibia_r.femur_lat_r.force.Z	femur_lat_tibia_r.femur_lat_r.torque.X	femur_lat_tibia_r.femur_lat_r.torque.Y	femur_lat_tibia_r.femur_lat_r.torque.Z	aACL_R	pACL_R	aPCL_R	pPCL_R	aMCL_R	mMCL_R	pMCL_R	aLCL_R	mLCL_R	pLCL_R	aPCL_L	pPCL_L	aMCL_L	aLCL_L	ground_prescribedForce_-20_fx	ground_prescribedForce_-20_fy	ground_prescribedForce_-20_fz
      0.75794948	      7.54734238	      5.66533395	      6.06426170	      2.65874657	      3.17874182	      3.19248498	      6.33311158	      4.00589330	      7.04096368	      7.04384349	      0.00000000	      5.61286084	      2.35679252	      2.91870937	      2.45353810	      3.98711545	      4.37631295	      2.23855357	      1.52717852	      3.65580376	      5.55559158	      4.14710330	     22.64684432	     12.96600275	      3.62641070	      2.85419400	      4.08964328	     11.51107766	      9.01712165	      9.45442819	     12.51093172	      2.64775730	      2.02331539	      9.84941390	     13.46578048	      2.88125679	      2.70516250	     15.74251409	      4.17069453	      8.53229891	     11.06870354	      8.67648619	      2.09453636	      7.54734238	      5.66533395	      6.06426170	      2.65874657	      3.17874182	      3.19248498	      8.74436385	      4.08290857	      7.68216402	      7.21549605	      1.51963554	      5.61286084	      4.16051659	      2.91870937	      2.45353810	      3.98711545	      4.09681003	      2.23855357	      1.55858991	      3.65580376	      5.55559158	      4.14710330	     22.64684432	     12.96600275	      3.62641070	      2.85419400	      4.08964328	     10.66622932	      6.59218435	      7.56175165	      8.13092943	     13.95162062	      6.47805748	     31.08399262	     42.35829360	      2.57216199	      2.83493753	      8.45109060	      4.33362420	     12.44575671	      2.00575256	      5.36776296	      1.70357621	     25.00480674	     25.00480674	      8.99945178	      8.99945178	     26.80411666	     26.80411666	      2.76307435	     50.99597937	     -9.56042239	      5.21997485	     -0.02578839	      1.48581788	     -2.76307435	    -50.99597937	      9.56042239	     -1.74637766	      0.02558040	     -0.48301696	     -3.31599387	     20.97615968	     -3.40468921	      0.94473225	     -0.02138609	     -1.00501789	      3.31599387	    -20.97615968	      3.40468921	      0.28075727	      0.00368718	     -0.29758878	     44.69137437	     78.37662748	     23.46600049	    -11.60661050	      1.05714423	     18.55809452	    -44.69137437	    -78.37662748	    -23.46600049	      2.69161104	     -1.35137373	     -0.59660617	     54.40756950	     54.34878384	      0.94509183	      0.74054606	     -1.12661662	     22.49916410	    -54.40756950	    -54.34878384	     -0.94509183	     -1.00643447	      1.01902793	     -1.00531940	      0.00000000	      0.00000000	      0.00000000	      0.00000000	      0.00000000	      0.00000000	      0.00000000	      0.00000000	      0.00000000	      0.00000000	      0.00000000	      0.00000000	      0.00000000	      0.00000000	      0.00000000	      0.00000000	      0.00000000	      0.00000000	      0.00000000	      0.00000000	      0.00000000	      0.00000000	      0.00000000	      0.00000000	      0.00000000	      0.00000000	      0.00000000	      0.00000000	      0.00000000	      0.00000000	      0.00000000	      0.00000000	      0.00000000	      0.00000000	      0.00000000	      0.00000000	      0.00000000	      0.00000000	      0.00000000	      0.00000000	      0.00000000	      0.00000000	      0.00000000	      0.00000000	      0.00000000	      0.00000000	      0.00000000	      0.00000000	     28.17637240	     47.24325258	      0.00000000	     15.98947680	      0.00000000	      3.11392087	      5.27212976	      6.46449951	      0.00000000	      0.00000000	      0.00000000	      0.00000000	      0.00000001	      0.00000000	    103.36618800	    -37.62220000	      0.00000000
      0.75828101	      7.54733462	      5.66532860	      6.06425591	      2.65874417	      3.17873922	      3.19248171	      6.33314401	      4.00590595	      7.04077730	      7.04344217	      0.00000000	      5.61285548	      3.20059054	      2.91870664	      2.45353575	      3.98711122	      4.37635115	      2.23855153	      1.52718618	      3.65580031	      5.55558633	      4.14709931	     22.64683462	     12.96599185	      3.62640735	      2.85419243	      4.08963697	     11.51088798	      9.01713580	      9.45423584	     12.51052134	      2.64789209	      2.02374121	      9.85128587	     13.46069558	      2.88300121	      2.70111523	     15.74058017	      4.17295833	      8.53706514	     11.06982674	      8.67394084	      2.09706578	      7.54733462	      5.66532860	      6.06425591	      2.65874417	      3.17873922	      3.19248171	      8.74435253	      4.08290442	      7.68215461	      7.21548938	      1.51963417	      5.61285548	      4.15576476	      2.91870664	      2.45353575	      3.98711122	      4.09680741	      2.23855153	      1.55858849	      3.65580031	      5.55558633	      4.14709931	     22.64683462	     12.96599185	      3.62640735	      2.85419243	      4.08963697	     10.66621652	      6.59217799	      7.56174421	      8.13092147	     13.95159080	      6.47804361	     31.08394486	     42.35827498	      2.57188643	      2.83481263	      8.45108097	      4.33361841	     12.44574239	      2.00575087	      5.36789427	      1.70361167	     25.00478408	     25.00478408	      8.99944290	      8.99944290	     26.80410868	     26.80410868	      2.76307435	     50.99597937	     -9.56042239	      5.21997485	     -0.02578839	      1.48581788	     -2.76307435	    -50.99597937	      9.56042239	     -1.74637766	      0.02558040	     -0.48301696	     -3.31599387	     20.97615968	     -3.40468921	      0.94473225	     -0.02138609	     -1.00501789	      3.31599387	    -20.97615968	      3.40468921	      0.28075727	      0.00368718	     -0.29758878	     44.67413432	     78.34796236	     23.46061735	    -11.60369157	      1.05673936	     18.55092269	    -44.67413432	    -78.34796236	    -23.46061735	      2.69068756	     -1.35086966	     -0.59635477	     54.43009693	     54.37493102	      0.94968272	      0.73923069	     -1.12712230	     22.50850298	    -54.43009693	    -54.37493102	     -0.94968272	     -1.00686446	      1.01947196	     -1.00572970	      0.00000000	      0.00000000	      0.00000000	      0.00000000	      0.00000000	      0.00000000	      0.00000000	      0.00000000	      0.00000000	      0.00000000	      0.00000000	      0.00000000	      0.00000000	      0.00000000	      0.00000000	      0.00000000	      0.00000000	      0.00000000	      0.00000000	      0.00000000	      0.00000000	      0.00000000	      0.00000000	      0.00000000	      0.00000000	      0.00000000	      0.00000000	      0.00000000	      0.00000000	      0.00000000	      0.00000000	      0.00000000	      0.00000000	      0.00000000	      0.00000000	      0.00000000	      0.00000000	      0.00000000	      0.00000000	      0.00000000	      0.00000000	      0.00000000	      0.00000000	      0.00000000	      0.00000000	      0.00000000	      0.00000000	      0.00000000	     28.17494943	     47.24324178	      0.00000000	     15.99171720	      0.00000000	      3.11267289	      5.27063697	      6.46122543	      0.00000000	      0.00000000	      0.00000000	      0.00000000	      0.00000001	      0.00000000	    103.36618800	    -37.62220000	      0.00000000
      0.75993870	      7.54729632	      5.66530221	      6.06422730	      2.65873231	      3.17872640	      3.19246554	      6.33315346	      4.00589965	      7.03962584	      7.04112557	      0.00000000	      5.61282902	      4.42189351	      2.91869314	      2.45352413	      3.98709030	      4.37646523	      2.23854148	      1.52720028	      3.65578329	      5.55556039	      4.14707959	     22.64678677	     12.96593806	      3.62639082	      2.85418470	      4.08960585	     11.50972938	      9.01680679	      9.45290363	     12.50775564	      2.64860937	      2.02600142	      9.86144745	     13.43660750	      2.89142843	      2.68098849	     15.73091105	      4.18372372	      8.56041406	     11.07495836	      8.66372601	      2.10994324	      7.54729632	      5.66530221	      6.06422730	      2.65873231	      3.17872640	      3.19246554	      8.74429665	      4.08288389	      7.68210816	      7.21545647	      1.51962743	      5.61282902	      4.14454429	      2.91869314	      2.45352413	      3.98709030	      4.09679448	      2.23854148	      1.55858144	      3.65578329	      5.55556039	      4.14707959	     22.64678677	     12.96593806	      3.62639082	      2.85418470	      4.08960585	     10.66615331	      6.59214658	      7.56170749	      8.13088218	     13.95144359	      6.47797512	     31.08370909	     42.35818308	      2.57050618	      2.83418779	      8.45103342	      4.33358985	     12.44567171	      2.00574252	      5.36855203	      1.70378920	     25.00467227	     25.00467227	      8.99939907	      8.99939907	     26.80406932	     26.80406932	      2.76307435	     50.99597937	     -9.56042239	      5.21997485	     -0.02578839	      1.48581788	     -2.76307435	    -50.99597937	      9.56042239	     -1.74637766	      0.02558040	     -0.48301696	     -3.31599387	     20.97615968	     -3.40468921	      0.94473225	     -0.02138609	     -1.00501789	      3.31599387	    -20.97615968	      3.40468921	      0.28075727	      0.00368718	     -0.29758878	     44.58729275	     78.20913817	     23.43611207	    -11.59021336	      1.05470972	     18.51477652	    -44.58729275	    -78.20913817	    -23.43611207	      2.68626468	     -1.34836451	     -0.59501859	     54.55639101	     54.48574574	      0.96192858	      0.73686313	     -1.12989294	     22.56103135	    -54.55639101	    -54.48574574	     -0.96192858	     -1.00912712	      1.02200727	     -1.00852569	      0.00000000	      0.00000000	      0.00000000	      0.00000000	      0.00000000	      0.00000000	      0.00000000	      0.00000000	      0.00000000	      0.00000000	      0.00000000	      0.00000000	      0.00000000	      0.00000000	      0.00000000	      0.00000000	      0.00000000	      0.00000000	      0.00000000	      0.00000000	      0.00000000	      0.00000000	      0.00000000	      0.00000000	      0.00000000	      0.00000000	      0.00000000	      0.00000000	      0.00000000	      0.00000000	      0.00000000	      0.00000000	      0.00000000	      0.00000000	      0.00000000	      0.00000000	      0.00000000	      0.00000000	      0.00000000	      0.00000000	      0.00000000	      0.00000000	      0.00000000	      0.00000000	      0.00000000	      0.00000000	      0.00000000	      0.00000000	     28.16553644	     47.24044651	      0.00000000	     16.00680029	      0.00000000	      3.10711470	      5.26396297	      6.44730719	      0.00000000	      0.00000000	      0.00000000	      0.00000000	      0.00000001	      0.00000000	    103.36618800	    -37.62220000	      0.00000000
      0.76373564	      7.54721161	      5.66524383	      6.06416404	      2.65870607	      3.17869802	      3.19242978	      6.33290085	      4.00582487	      7.03612149	      7.03558725	      0.00000000	      5.61277051	      3.45819472	      2.91866328	      2.45349844	      3.98704403	      4.37638455	      2.23851925	      1.52731248	      3.65574566	      5.55550302	      4.14703598	     22.64668094	     12.96581909	      3.62635426	      2.85416760	      4.08953703	     11.50653936	      9.01583921	      9.44968450	     12.49962149	      2.65119385	      2.03234115	      9.89022523	     13.39112215	      2.90889977	      2.63584734	     15.70872047	      4.20463625	      8.61035599	     11.08355860	      8.65497159	      2.14060668	      7.54721161	      5.66524383	      6.06416404	      2.65870607	      3.17869802	      3.19242978	      8.74417307	      4.08283850	      7.68200542	      7.21538368	      1.51961250	      5.61277051	      4.13875095	      2.91866328	      2.45349844	      3.98704403	      4.09676588	      2.23851925	      1.55856587	      3.65574566	      5.55550302	      4.14703598	     22.64668094	     12.96581909	      3.62635426	      2.85416760	      4.08953703	     10.66601351	      6.59207711	      7.56162626	      8.13079529	     13.95111794	      6.47782361	     31.08318763	     42.35797981	      2.56732901	      2.83275462	      8.45092827	      4.33352668	     12.44551537	      2.00572407	      5.37006640	      1.70419721	     25.00442498	     25.00442498	      8.99930214	      8.99930214	     26.80398225	     26.80398225	      2.76307435	     50.99597937	     -9.56042239	      5.21997485	     -0.02578839	      1.48581788	     -2.76307435	    -50.99597937	      9.56042239	     -1.74637766	      0.02558040	     -0.48301696	     -3.31599387	     20.97615968	     -3.40468921	      0.94473225	     -0.02138609	     -1.00501789	      3.31599387	    -20.97615968	      3.40468921	      0.28075727	      0.00368718	     -0.29758878	     44.34230874	     77.98639758	     23.39114359	    -11.56608460	      1.04919579	     18.41226049	    -44.34230874	    -77.98639758	    -23.39114359	      2.67874561	     -1.34178044	     -0.58915789	     54.80623535	     54.81884597	      1.03025569	      0.71590239	     -1.13542848	     22.66437369	    -54.80623535	    -54.81884597	     -1.03025569	     -1.01417627	      1.02671153	     -1.01246149	      0.00000000	      0.00000000	      0.00000000	      0.00000000	      0.00000000	      0.00000000	      0.00000000	      0.00000000	      0.00000000	      0.00000000	      0.00000000	      0.00000000	      0.00000000	      0.00000000	      0.00000000	      0.00000000	      0.00000000	      0.00000000	      0.00000000	      0.00000000	      0.00000000	      0.00000000	      0.00000000	      0.00000000	      0.00000000	      0.00000000	      0.00000000	      0.00000000	      0.00000000	      0.00000000	      0.00000000	      0.00000000	      0.00000000	      0.00000000	      0.00000000	      0.00000000	      0.00000000	      0.00000000	      0.00000000	      0.00000000	      0.00000000	      0.00000000	      0.00000000	      0.00000000	      0.00000000	      0.00000000	      0.00000000	      0.00000000	     28.09084168	     47.17545180	      0.00000000	     15.94678264	      0.00000000	      2.99517688	      5.15009654	      6.30952974	      0.00000000	      0.00000000	      0.00000000	      0.00000000	      0.00000001	      0.00000000	    103.36618800	    -37.62220000	      0.00000000
